# xmcd
#
# Track frame offsets: 
#        150
#        9734
#        20795
#        50637
#        77275
#        102680
#        116271
#        151833
#        174359
#        193424
#        204384
#        221366
#        234819
#        262876
#        283194
#
# Disc length: 3992 seconds
#
# Revision: 0
# Processed by: cddbd v1.5.2PL0 Copyright (c) Steve Scherf et al.
# Submitted via: ExactAudioCopyFreeDBPlugin 1.0
#
DISCID=c60f960f
DTITLE=CDS制作 - TEST-CD-25B【世界名曲精华】
DYEAR=2014
DGENRE=STE
TTITLE0=狩猎之歌
TTITLE1=胡桃夹子 进行曲
TTITLE2=胡桃夹子 世花之园舞曲
TTITLE3=第九交响曲第四乐章 欢乐颂
TTITLE4=沉思 选自泰依丝
TTITLE5=匈牙利舞曲第一首
TTITLE6=蓝色多瑙河 施特劳斯
TTITLE7=斗牛者之歌
TTITLE8=哈巴里拉舞曲
TTITLE9=军刀舞曲
TTITLE10=以舒伯特(鳟鱼)为主题
TTITLE11=饮酒歌 选自《茶花女》第一幕
TTITLE12=轻骑兵前奏曲
TTITLE13=印度之歌
TTITLE14=黄河船夫曲
EXTD=
EXTT0=
EXTT1=
EXTT2=
EXTT3=
EXTT4=
EXTT5=
EXTT6=
EXTT7=
EXTT8=
EXTT9=
EXTT10=
EXTT11=
EXTT12=
EXTT13=
EXTT14=
PLAYORDER=
